<svg width="33" height="32" viewBox="0 0 33 32" fill="none" xmlns="http://www.w3.org/2000/svg">
<path d="M27 9V6H24V3H27V0H30V3H33V6H30V9H27ZM20.25 15C20.875 15 21.4062 14.7812 21.8438 14.3438C22.2812 13.9062 22.5 13.375 22.5 12.75C22.5 12.125 22.2812 11.5938 21.8438 11.1562C21.4062 10.7188 20.875 10.5 20.25 10.5C19.625 10.5 19.0938 10.7188 18.6562 11.1562C18.2188 11.5938 18 12.125 18 12.75C18 13.375 18.2188 13.9062 18.6562 14.3438C19.0938 14.7812 19.625 15 20.25 15ZM9.75 15C10.375 15 10.9062 14.7812 11.3438 14.3438C11.7812 13.9062 12 13.375 12 12.75C12 12.125 11.7812 11.5938 11.3438 11.1562C10.9062 10.7188 10.375 10.5 9.75 10.5C9.125 10.5 8.59375 10.7188 8.15625 11.1562C7.71875 11.5938 7.5 12.125 7.5 12.75C7.5 13.375 7.71875 13.9062 8.15625 14.3438C8.59375 14.7812 9.125 15 9.75 15ZM15 24.75C16.7 24.75 18.2437 24.2687 19.6313 23.3062C21.0188 22.3438 22.025 21.075 22.65 19.5H7.35C7.975 21.075 8.98125 22.3438 10.3687 23.3062C11.7562 24.2687 13.3 24.75 15 24.75ZM15 31.5C12.925 31.5 10.975 31.1063 9.15 30.3188C7.325 29.5312 5.7375 28.4625 4.3875 27.1125C3.0375 25.7625 1.96875 24.175 1.18125 22.35C0.39375 20.525 0 18.575 0 16.5C0 14.425 0.39375 12.475 1.18125 10.65C1.96875 8.825 3.0375 7.2375 4.3875 5.8875C5.7375 4.5375 7.325 3.46875 9.15 2.68125C10.975 1.89375 12.925 1.5 15 1.5C16.075 1.5 17.1125 1.60625 18.1125 1.81875C19.1125 2.03125 20.075 2.3375 21 2.7375V9H24V12H29.325C29.55 12.725 29.7188 13.4563 29.8312 14.1938C29.9437 14.9313 30 15.7 30 16.5C30 18.575 29.6063 20.525 28.8188 22.35C28.0312 24.175 26.9625 25.7625 25.6125 27.1125C24.2625 28.4625 22.675 29.5312 20.85 30.3188C19.025 31.1063 17.075 31.5 15 31.5Z" fill="#FDFCFF"/>
</svg>
